<svg width="19" height="19" fill="none" xmlns="http://www.w3.org/2000/svg"><path d="M14.445 12.569c-.62-.613-1.395-.613-2.012 0-.47.466-.941.933-1.404 1.407-.126.13-.233.158-.387.071-.305-.166-.629-.3-.921-.482-1.365-.858-2.507-1.961-3.52-3.203-.502-.616-.948-1.277-1.26-2.02-.064-.15-.052-.25.07-.372.471-.454.93-.921 1.392-1.388.645-.648.645-1.407-.004-2.06-.367-.371-.735-.735-1.103-1.107-.38-.38-.755-.763-1.139-1.138-.62-.605-1.395-.605-2.012.004-.475.466-.93.945-1.412 1.403-.446.423-.672.941-.72 1.546-.074.985.167 1.914.507 2.82.696 1.873 1.755 3.538 3.04 5.064a18.815 18.815 0 006.232 4.875c1.091.53 2.222.937 3.451 1.005.847.047 1.582-.166 2.171-.827.404-.45.858-.862 1.285-1.293.633-.64.637-1.415.008-2.048a601.752 601.752 0 00-2.262-2.257zm-.755-3.15l1.46-.25a6.52 6.52 0 00-1.823-3.519A6.486 6.486 0 009.61 3.796l-.205 1.467a5.032 5.032 0 012.878 1.435 5.03 5.03 0 011.408 2.72zm2.282-6.343A10.758 10.758 0 009.804 0l-.206 1.467a9.328 9.328 0 015.33 2.657 9.32 9.32 0 012.613 5.041l1.46-.249a10.836 10.836 0 00-3.03-5.84z" fill="#fff"/></svg>